<?xml version="1.0" encoding="UTF-8"?>
<svg width="12px" height="12px" viewBox="0 0 12 12" version="1.1" xmlns="http://www.w3.org/2000/svg" xmlns:xlink="http://www.w3.org/1999/xlink">
    <!-- Generator: Sketch 52.5 (67469) - http://www.bohemiancoding.com/sketch -->
    <title>编组</title>
    <desc>Created with Sketch.</desc>
    <g id="Poc钱包" stroke="none" stroke-width="1" fill="none" fill-rule="evenodd">
        <g id="首页" transform="translate(-184.000000, -187.000000)" fill="#FFFFFF" fill-rule="nonzero">
            <g id="编组" transform="translate(184.000000, 187.000000)">
                <path d="M1,0 L9,0 C9.55228475,0 10,0.44771525 10,1 L10,9 C10,9.55228475 9.55228475,10 9,10 L1,10 C0.44771525,10 0,9.55228475 0,9 L0,1 C0,0.44771525 0.44771525,0 1,0 Z M1,1 L1,9 L9,9 L9,1 L1,1 Z" id="矩形"></path>
                <path d="M9,8 L9,2 L11,2 C11.5522847,2 12,2.44771525 12,3 L12,11 C12,11.5522847 11.5522847,12 11,12 L3,12 C2.44771525,12 2,11.5522847 2,11 L2,9 L8,9 C8.55228475,9 9,8.55228475 9,8 Z M10,3 L10,8 C10,9.1045695 9.1045695,10 8,10 L3,10 L3,11 L11,11 L11,3 L10,3 Z" id="矩形复制-2"></path>
            </g>
        </g>
    </g>
</svg>