<?xml version="1.0" encoding="UTF-8"?>
<svg width="16px" height="16px" viewBox="0 0 16 16" version="1.1" xmlns="http://www.w3.org/2000/svg" xmlns:xlink="http://www.w3.org/1999/xlink">
    <!-- Generator: Sketch 52.5 (67469) - http://www.bohemiancoding.com/sketch -->
    <title>编组</title>
    <desc>Created with Sketch.</desc>
    <g id="Poc钱包" stroke="none" stroke-width="1" fill="none" fill-rule="evenodd">
        <g id="Poc收款" transform="translate(-312.000000, -430.000000)" fill="#9B9B9B" fill-rule="nonzero">
            <g id="编组" transform="translate(312.000000, 430.000000)">
                <path d="M1.33333333,0 L12,0 C12.7363797,0 13.3333333,0.596953667 13.3333333,1.33333333 L13.3333333,12 C13.3333333,12.7363797 12.7363797,13.3333333 12,13.3333333 L1.33333333,13.3333333 C0.596953667,13.3333333 0,12.7363797 0,12 L0,1.33333333 C0,0.596953667 0.596953667,0 1.33333333,0 Z M1.33333333,1.33333333 L1.33333333,12 L12,12 L12,1.33333333 L1.33333333,1.33333333 Z" id="矩形"></path>
                <path d="M12,10.6666667 L12,2.66666667 L14.6666667,2.66666667 C15.4030463,2.66666667 16,3.26362033 16,4 L16,14.6666667 C16,15.4030463 15.4030463,16 14.6666667,16 L4,16 C3.26362033,16 2.66666667,15.4030463 2.66666667,14.6666667 L2.66666667,12 L10.6666667,12 C11.4030463,12 12,11.4030463 12,10.6666667 Z M13.3333333,4 L13.3333333,10.6666667 C13.3333333,12.139426 12.139426,13.3333333 10.6666667,13.3333333 L4,13.3333333 L4,14.6666667 L14.6666667,14.6666667 L14.6666667,4 L13.3333333,4 Z" id="矩形复制-2"></path>
            </g>
        </g>
    </g>
</svg>