<?xml version="1.0" encoding="UTF-8"?>
<svg width="22px" height="22px" viewBox="0 0 22 22" version="1.1" xmlns="http://www.w3.org/2000/svg" xmlns:xlink="http://www.w3.org/1999/xlink">
    <!-- Generator: Sketch 52.5 (67469) - http://www.bohemiancoding.com/sketch -->
    <title>计价货币icon</title>
    <desc>Created with Sketch.</desc>
    <g id="组件" stroke="none" stroke-width="1" fill="none" fill-rule="evenodd">
        <g id="我的列表-数据" transform="translate(-18.000000, -16.000000)">
            <g id="计价货币icon" transform="translate(18.000000, 16.000000)">
                <circle stroke="#FF4521" stroke-width="1" cx="11" cy="11" r="10.5"></circle>
                <path d="M14.6583938,11.882049 C14.4270904,11.4428091 14.0908732,11.0582005 13.6750203,10.7574425 C12.9383636,10.2921241 12.1430332,9.91198885 11.3068061,9.62531697 C10.8291969,9.47703185 10.388477,9.24175533 10.0103355,8.93347836 C9.81479111,8.76730004 9.69672463,8.53716306 9.6812085,8.29179782 C9.68706558,8.02587443 9.82465567,7.77727319 10.0545205,7.61775723 C10.326207,7.41455522 10.6690005,7.31071756 11.0178566,7.32585064 C11.6881331,7.32585064 12.3664245,7.65268704 13.0528336,8.30626466 L14.5539938,6.95075971 C14.1855114,6.58632856 13.7688364,6.26663041 13.3137307,5.99899385 C12.9109277,5.79407866 12.4783256,5.64379483 12.0292825,5.55290119 L12.0292825,4 L10.5642923,4 L10.5642923,5.45734389 C9.75395964,5.47076379 8.97938601,5.76838098 8.39676032,6.29013903 C7.84136493,6.77249397 7.52970643,7.44862844 7.53782414,8.15388694 C7.53607729,8.58427547 7.64756739,9.00857269 7.86294366,9.39004045 C8.10164551,9.80139366 8.43621857,10.1584962 8.84230971,10.4354601 C9.633016,10.9283796 10.4731479,11.3497264 11.3508884,11.6935994 C11.8176055,11.8609198 12.2382879,12.121894 12.5832393,12.4575818 C13.0608485,13.0385397 12.9845009,13.8604847 12.406602,14.3573065 C12.0982317,14.6424556 11.6782685,14.7997825 11.2425837,14.7934056 C10.3554924,14.7934056 9.43233382,14.3249465 8.48112288,13.3877426 L7,14.7934056 C7.52888438,15.3264897 8.14521399,15.7790544 8.82627979,16.1344437 C9.3662618,16.3973215 9.9567997,16.5590265 10.5642923,16.6103267 L10.5642923,18 L12.0292825,18 L12.0292825,16.5672117 C12.6244444,16.476318 13.1913485,16.2673102 13.6910502,15.9544648 C14.0946752,15.6634148 14.4179451,15.287848 14.6343489,14.8584112 C14.8804492,14.3891907 15.0055031,13.8734287 14.9995432,13.3516707 C15.0082775,12.844094 14.8916496,12.3413712 14.6583938,11.882049" id="Fill-1" fill="#FF4521" fill-rule="evenodd"></path>
            </g>
        </g>
    </g>
</svg>