<?xml version="1.0" encoding="UTF-8"?>
<svg width="22px" height="14px" viewBox="0 0 22 14" version="1.1" xmlns="http://www.w3.org/2000/svg" xmlns:xlink="http://www.w3.org/1999/xlink">
    <!-- Generator: Sketch 52.5 (67469) - http://www.bohemiancoding.com/sketch -->
    <title>可见icon</title>
    <desc>Created with Sketch.</desc>
    <g id="组件" stroke="none" stroke-width="1" fill="none" fill-rule="evenodd">
        <g id="密码输入框" transform="translate(-307.000000, -17.000000)">
            <g id="可见icon" transform="translate(306.000000, 12.000000)">
                <rect id="矩形" x="0" y="0" width="24" height="24"></rect>
                <path d="M12.0000736,8.52876969 C10.0825135,8.52876969 8.52751229,10.0836237 8.52751229,11.9998595 C8.52751229,13.9185968 10.0825135,15.4721265 12.0000736,15.4721265 C13.9173394,15.4721265 15.4723406,13.9185968 15.4723406,11.9998595 C15.4724877,10.0836237 13.9173394,8.52876969 12.0000736,8.52876969 M12.0000736,17.0003478 C9.23791593,17.0003478 7.0001739,14.76187 7.0001739,11.9998595 C7.0001739,9.23902618 9.23791593,7.00054844 12.0000736,7.00054844 C14.7620841,7.00054844 16.9999732,9.23887904 16.9999732,11.9998595 C16.9999732,14.76187 14.7620841,17.0003478 12.0000736,17.0003478 M12.0000736,5 C5.9247099,5 1,10.000194 1,11.9997124 C1,14.000408 5.9247099,19.0008962 12.0000736,19.0008962 C18.0752901,19.0008962 23,14.000408 23,11.9997124 C23,10.000194 18.0747015,5 12.0000736,5" id="可见" fill="#C6C6C6" fill-rule="evenodd"></path>
            </g>
        </g>
    </g>
</svg>