<?xml version="1.0" encoding="UTF-8"?>
<svg width="24px" height="24px" viewBox="0 0 24 24" version="1.1" xmlns="http://www.w3.org/2000/svg" xmlns:xlink="http://www.w3.org/1999/xlink">
    <!-- Generator: Sketch 52.5 (67469) - http://www.bohemiancoding.com/sketch -->
    <title>不可见icon</title>
    <desc>Created with Sketch.</desc>
    <g id="不可见icon" stroke="none" stroke-width="1" fill="none" fill-rule="evenodd">
        <rect id="矩形复制-5" x="0" y="0" width="24" height="24"></rect>
        <path d="M15.4652618,12.8005245 L12.2129532,16.0528331 C13.9607214,15.9470371 15.3593186,14.5494699 15.4652618,12.8005245 Z M19.862316,8.40347031 C21.8025477,9.88873491 23,11.6022188 23,12.5876376 C23,14.588198 18.0752605,19.5888635 12.0000074,19.5888635 C10.9823642,19.5888635 9.99812259,19.4459874 9.06287969,19.2030538 L10.8191823,17.446604 C11.1979292,17.5384215 11.593009,17.5881559 12.0000074,17.5881559 C14.7621816,17.5881559 17.0000843,15.3496647 17.0000843,12.5876376 C17.0000843,12.1807863 16.9502027,11.7858536 16.8585324,11.4072539 L19.862316,8.40347031 Z M7.00006287,12.587564 C7.00006287,13.1617172 7.09894318,13.7123275 7.27713373,14.2257105 L8.54815767,12.9546865 C8.53520905,12.834029 8.52741046,12.7117529 8.52741046,12.587564 C8.52741046,10.6714638 10.082421,9.11645323 11.9999926,9.11645323 C12.1237402,9.11645323 12.2454277,9.12425183 12.3657909,9.13705329 L13.6375506,7.86529364 C13.1243147,7.68695595 12.5739987,7.58822278 11.9999926,7.58822278 C9.23781837,7.58822278 7.00006287,9.826714 7.00006287,12.587564 Z M18.5029914,3 L20.0635933,4.56060198 L3.41624034,21.207955 L1.85549122,19.647353 L4.47846792,17.0242292 C2.33900415,15.484963 1,13.6297801 1,12.587564 C1,10.5880335 5.9245924,5.5876623 11.9999926,5.5876623 C13.1871449,5.5876623 14.3297127,5.77953718 15.4010632,6.10192818 L18.5029914,3 Z" id="不可见" fill="#C6C6C6"></path>
    </g>
</svg>