<?xml version="1.0" encoding="UTF-8"?>
<svg width="22px" height="22px" viewBox="0 0 22 22" version="1.1" xmlns="http://www.w3.org/2000/svg" xmlns:xlink="http://www.w3.org/1999/xlink">
    <!-- Generator: Sketch 52.5 (67469) - http://www.bohemiancoding.com/sketch -->
    <title>语言icon</title>
    <desc>Created with Sketch.</desc>
    <g id="语言icon" stroke="none" stroke-width="1" fill="none" fill-rule="evenodd">
        <circle id="计价货币icon复制" stroke="#9013FE" cx="11" cy="11" r="10.5"></circle>
        <path d="M8.21649485,8.52541311 L11.9278351,8.52541311 C11.4948784,9.81350866 10.8763216,10.8983235 10.1339876,11.8474732 C9.32989691,10.8983235 8.64945155,9.81350866 8.21649485,8.52541311 Z M11.0618557,14.6270896 L11.6185897,13.2034013 C11.4329897,13.0678085 11.2474557,12.9322156 11.1237443,12.7966228 C12.0515464,11.6440478 12.7938144,10.2203594 13.3505485,8.52541311 L15.0206186,8.52541311 L15.0206186,7.16948499 L10.3195876,7.16948499 L11.2474557,6.83053912 C11.1237443,6.35592812 10.814433,5.61020381 10.5051876,5 L9.14436289,5.474611 C9.39171959,6.01698225 9.63914227,6.69494631 9.76285361,7.16948499 L5.18553402,7.16948499 L5.18553402,8.52541311 L6.91755876,8.52541311 C7.4742268,10.2203594 8.27831753,11.6440478 9.20618557,12.7966228 C8.09278351,13.7457725 6.67013608,14.4237366 5,14.8982753 C5.24742268,15.2372934 5.6185567,15.9152575 5.80409072,16.2542034 C7.53604948,15.7118321 9.02065155,14.8982753 10.1958763,13.8135328 C10.443299,14.0847184 10.7526103,14.355904 11.0618557,14.6270896 Z M14.3402392,12.5254372 L13.5979711,14.6270896 L15.0825072,14.6270896 L14.3402392,12.5254372 Z M15.7628866,17 L15.3299299,15.6440719 L13.2886598,15.6440719 L12.8557031,17 L11.556701,17 L13.5360825,11.3051019 L15.0206186,11.3051019 L17,17 L15.7628866,17 Z" id="Fill-1" fill="#9012FE"></path>
    </g>
</svg>