<?xml version="1.0" encoding="UTF-8"?>
<svg width="22px" height="22px" viewBox="0 0 22 22" version="1.1" xmlns="http://www.w3.org/2000/svg" xmlns:xlink="http://www.w3.org/1999/xlink">
    <!-- Generator: Sketch 52.5 (67469) - http://www.bohemiancoding.com/sketch -->
    <title>钱包工具icon</title>
    <desc>Created with Sketch.</desc>
    <g id="钱包工具icon" stroke="none" stroke-width="1" fill="none" fill-rule="evenodd">
        <circle id="计价货币icon复制-2" stroke="#F5A623" cx="11" cy="11" r="10.5"></circle>
        <g id="编组" transform="translate(5.000000, 5.000000)" fill="#F5A623">
            <path d="M10.7555182,10.7648662 L1.79260909,10.7648662 C1.46251818,10.7648662 1.19506364,10.4993323 1.19506364,10.1718135 L1.19506364,3.64841504 L10.7555182,3.64841504 L10.7555182,10.7648662 Z M1.19506364,1.86934737 C1.19506364,1.54182857 1.46251818,1.27629474 1.79260909,1.27629474 L8.36533636,1.27629474 L8.36533636,2.46230977 L1.19506364,2.46230977 L1.19506364,1.86934737 Z M11.3529727,2.46230977 L9.56042727,2.46230977 L9.56042727,0.683242105 C9.56042727,0.519482707 9.49351818,0.371242105 9.38542727,0.263873684 C9.27724545,0.156595489 9.12797273,0.0901894737 8.96288182,0.0901894737 L1.79260909,0.0901894737 C0.802972727,0.0912721805 0.00106363636,0.88715188 -2.72727273e-05,1.86934737 L-2.72727273e-05,10.1718135 C0.00106363636,11.1539188 0.802972727,11.9498887 1.79260909,11.9509714 L11.3529727,11.9509714 C11.6829727,11.9509714 11.9506091,11.6853474 11.9506091,11.3578286 L11.9506091,3.05536241 C11.9506091,2.72784361 11.6829727,2.46230977 11.3529727,2.46230977 Z" id="Fill-1"></path>
            <path d="M7.17029091,7.20668571 C7.17029091,7.86172331 7.70538182,8.39279098 8.36538182,8.39279098 C9.02538182,8.39279098 9.56047273,7.86172331 9.56047273,7.20668571 L9.56047273,7.20659549 C9.56047273,6.55155789 9.02538182,6.02058045 8.36538182,6.02058045 C8.14538182,6.02058045 7.93929091,6.07958797 7.7622,6.18244511 C7.40810909,6.38843008 7.17029091,6.76990376 7.17029091,7.20659549 L7.17029091,7.20668571 Z" id="Fill-3"></path>
        </g>
    </g>
</svg>