<?xml version="1.0" encoding="UTF-8"?>
<svg width="24px" height="24px" viewBox="0 0 24 24" version="1.1" xmlns="http://www.w3.org/2000/svg" xmlns:xlink="http://www.w3.org/1999/xlink">
    <!-- Generator: Sketch 52.5 (67469) - http://www.bohemiancoding.com/sketch -->
    <title>Fill 1</title>
    <desc>Created with Sketch.</desc>
    <g id="组件" stroke="none" stroke-width="1" fill="none" fill-rule="evenodd">
        <g id="Overrides/Tab-Bar/Icons/Unselected/4" transform="translate(-14.000000, -5.000000)" fill="#00B000">
            <path d="M32.5,25.25 L30.4427516,26.3315595 L30.8356511,24.0407797 L29.1713022,22.4184405 L31.4713758,22.0842203 L32.5,20 L33.5286242,22.0842203 L35.8286978,22.4184405 L34.1643489,24.0407797 L34.5572484,26.3315595 L32.5,25.25 Z M38.0000774,23.5000734 C38.0000774,26.5225266 35.5225816,28.9999806 32.4998919,28.9999806 C29.4773877,28.9999806 27.0000774,26.5225266 27.0000774,23.5000734 C27.0000774,20.4774347 29.4773877,17.9999806 32.4998919,17.9999806 C35.5225816,17.9999806 38.0000774,20.4774347 38.0000774,23.5000734 Z M25,21 C25,20.5 24.6976776,20 24.2948324,20 L18.704979,20 C18.3524895,20 18,20.4283039 18,21 C18,21.5 18.3021339,22 18.704979,22 L24.2948324,22 C24.6475105,22 25,21.5 25,21 Z M18,12.9998663 C18,12.4999331 18.3614706,12 18.7229411,12 L28.2768655,12 C28.6899747,12 29,12.4999331 29,12.9998663 C29,13.5712184 28.6385294,14 28.2768655,14 L18.7229411,14 C18.3098319,14 18,13.5000669 18,12.9998663 Z M19.0000774,15.9999806 L28.0000774,15.9999806 C28.5523622,15.9999806 29.0000774,16.4476959 29.0000774,16.9999806 C29.0000774,17.5522654 28.5523622,17.9999806 28.0000774,17.9999806 L19.0000774,17.9999806 C18.4477927,17.9999806 18.0000774,17.5522654 18.0000774,16.9999806 C18.0000774,16.4476959 18.4477927,15.9999806 19.0000774,15.9999806 Z M26.9757906,28 L15.9050718,28 C14.8753451,28 14.0000774,27.0809632 14.0000774,25.9999816 L14.0000774,8.0000184 C14.0000774,6.9190368 14.8753451,6 15.9050718,6 L17,6 L17,7 C17,8.40527609 17.9134245,8.97290185 19.2520692,8.97290185 L27.799572,8.97290185 C29.1382167,8.97290185 30,8.40527609 30,7 L30,6 L31.0948902,6 C32.1248097,6 33.0000774,6.9190368 33.0000774,8.0000184 L33.0000774,16.5946319 C32.6911594,16.5405828 32.3822414,16.4863313 32.0731306,16.4863313 C31.0434039,16.4863313 30.0651635,16.7567791 29.2413822,17.1891718 C28.4137941,17.7297239 28.0017748,18.0000368 28.0053245,18.0001104 C26.4092481,19.2972883 25.4310078,21.2432577 25.4310078,23.5135215 C25.4310078,25.189043 25.9971646,26.8107178 26.9757906,28 Z M19.0000774,7.00005 L19.0000774,5.99991129 C19.0000774,5.44439427 19.3913499,4.99998065 19.8804405,4.99998065 L27.1195311,4.99998065 C27.6088049,4.99998065 28.0000774,5.44439427 28.0000774,5.99991129 L28.0000774,7.00005 C28.0000774,7.55556702 27.6088049,7.99998065 27.1195311,7.99998065 L19.9293496,7.99998065 C19.440259,7.99998065 19.0000774,7.55556702 19.0000774,7.00005 Z" id="Fill-1"></path>
        </g>
    </g>
</svg>