<?xml version="1.0" encoding="UTF-8"?>
<svg width="36px" height="36px" viewBox="0 0 36 36" version="1.1" xmlns="http://www.w3.org/2000/svg" xmlns:xlink="http://www.w3.org/1999/xlink">
    <!-- Generator: Sketch 52.5 (67469) - http://www.bohemiancoding.com/sketch -->
    <title>收款icon</title>
    <desc>Created with Sketch.</desc>
    <defs>
        <polygon id="path-1" points="0 0 35.964864 0 35.964864 35.964 0 35.964"></polygon>
    </defs>
    <g id="Poc钱包" stroke="none" stroke-width="1" fill="none" fill-rule="evenodd">
        <g id="首页" transform="translate(-236.000000, -249.000000)">
            <g id="转账收款控件" transform="translate(18.000000, 235.000000)">
                <g id="收款icon" transform="translate(218.000000, 14.000000)">
                    <mask id="mask-2" fill="white">
                        <use xlink:href="#path-1"></use>
                    </mask>
                    <g id="Clip-2"></g>
                    <path d="M35.94402,15.7967337 L35.85708,13.7899137 C35.72208,12.9408537 35.77158,12.0737937 35.62146,11.2564137 C35.54964,10.8064137 35.48052,10.3519137 35.41158,9.8988537 C35.16408,8.7679137 34.92396,7.6954737 34.53408,6.7189737 C33.8112,4.9099737 32.69664,3.3875337 31.14414,2.4079737 C27.81252,0.314033705 22.86414,-0.0144662952 17.4177,0.000473704757 L15.79176,0.0260337048 L14.79276,0.0620337048 L14.08338,0.0964137048 L12.16332,0.246533705 L11.12238,0.369473705 C10.34244,0.513473705 9.5715,0.594473705 8.8425,0.780593705 C5.48406,1.6354137 3.51756,2.8954137 1.96344,5.5624737 C1.1925,6.8869137 0.8685,8.5173537 0.49212,10.2498537 L0.25506,12.0017937 L0.08712,14.0867337 L0.06012,14.7977337 L0,16.7161737 L0,18.6693537 L0.03456,20.4722337 L0.07956,21.7262937 C0.0945,22.0096137 0.11412,22.2918537 0.13212,22.5751737 C0.252,23.3371137 0.22356,24.1127337 0.35856,24.8462337 C0.567,25.9681737 0.70344,27.0512337 1.01556,28.0516737 C1.863,30.7680537 3.1365,32.5860537 5.38038,33.9045537 C6.38082,34.4940537 7.57944,34.8704337 8.84088,35.1929937 L10.24344,35.4736137 L11.99682,35.7090537 C12.74382,35.7691737 13.49226,35.8260537 14.23944,35.8845537 L15.00138,35.9101137 L16.61526,35.9551137 L17.42076,35.9641137 L18.54144,35.9641137 L20.73276,35.9279337 L21.36276,35.9011137 L23.23764,35.7779937 L24.8427,35.6024937 C26.0442,35.3805537 27.19008,35.2201737 28.25226,34.8841137 C30.5532,34.1579937 32.26302,32.9969937 33.5097,31.2211137 C34.46964,29.8561737 34.96158,28.1206137 35.38458,26.2111737 C35.47458,25.6186137 35.56746,25.0246137 35.65458,24.4322337 L35.84952,22.3112937 C35.85996,22.0562337 35.87202,21.8042337 35.88552,21.5493537 C35.90802,20.9717337 35.93052,20.3942937 35.95608,19.8137937 L35.95608,19.3488537 L35.9649,18.5417337 L35.9649,16.6142937 L35.94708,15.7924137 L35.94402,15.7967337 Z" id="Fill-1" fill="#007AFF" mask="url(#mask-2)"></path>
                    <path d="M25,19 C24.4516928,19 24,19.3373227 24,19.750718 L24,25.249282 C24,25.6609946 24.4493335,26 25,26 C25.5506665,26 26,25.6626773 26,25.249282 L26,19.7489468 C26,19.3373227 25.5506665,19 25,19 Z M19.999941,19 C19.4516015,19 19,19.3373227 19,19.750718 L19,25.249282 C19,25.6609946 19.449242,26 19.999941,26 C20.55064,26 21,25.6626773 21,25.249282 L21,19.7489468 C21,19.3373227 20.55064,19 19.999941,19 Z M25.1921152,10 L20.0320192,10 C19.4642212,10 19,10.4643126 19,11.0321106 L19,16.1922066 C19,16.7600046 19.4642212,17.2242258 20.0320192,17.2242258 L25.1921152,17.2242258 C25.7599132,17.2242258 26.2242258,16.7600046 26.2242258,16.1922066 L26.2242258,11.0320192 C26.2242258,10.4643126 25.7599132,10 25.1921152,10 Z M12,24 L15,24 L15,21 L12,21 L12,24 Z M16,19 L11,19 C10.4498184,19 10,19.4498184 10,20 L10,25 C10,25.5501816 10.4498184,26 11,26 L16,26 C16.5501816,26 17,25.5501816 17,25 L17,20 C17,19.4498184 16.5501816,19 16,19 Z M12,15 L15,15 L15,12 L12,12 L12,15 Z M16,10 L11,10 C10.4498184,10 10,10.4499013 10,11.0000759 L10,16.0000127 C10,16.5501873 10.4498184,17 11,17 L16,17 C16.5501816,17 17,16.5501873 17,16.0000127 L17,10.9999873 C17,10.4499013 16.5501816,10 16,10 Z" id="Fill-1" fill="#FFFFFF" mask="url(#mask-2)"></path>
                </g>
            </g>
        </g>
    </g>
</svg>