<?xml version="1.0" encoding="UTF-8"?>
<svg width="24px" height="22px" viewBox="0 0 24 22" version="1.1" xmlns="http://www.w3.org/2000/svg" xmlns:xlink="http://www.w3.org/1999/xlink">
    <!-- Generator: Sketch 52.5 (67469) - http://www.bohemiancoding.com/sketch -->
    <title>编组</title>
    <desc>Created with Sketch.</desc>
    <g id="Poc钱包" stroke="none" stroke-width="1" fill="none" fill-rule="evenodd">
        <g id="Poc转账" transform="translate(-333.000000, -55.000000)" fill="#4A4A4A">
            <g id="编组" transform="translate(333.000000, 55.000000)">
                <g id="扫码icon">
                    <path d="M22.871477,10.0000136 L1.12839225,10.0000136 C0.485706661,10.0000136 0,10.4305458 0,10.9999557 C0,11.5694814 0.485706661,12.0000136 1.12839225,12.0000136 L22.871477,12.0000136 C23.5141626,12.0000136 24,11.5694814 24,10.9999557 C24,10.4305458 23.5141626,10.0000136 22.871477,10.0000136 M3,7 C3,4.63961317 3,3.30627984 3,3 C3,2.54058025 3.54044444,2 4,2 L8,2 C8.66774074,2 9,1.66774074 9,1 C9,0.332395062 8.78148148,0.00218641975 8.11374074,0.00218641975 L4,0 C3.15340741,0 2.50061728,0.325803704 1.91204938,0.914371605 C1.32361728,1.5028037 1,2.15354321 1,3 L1,7.0685321 C1,7.7339642 1.33225926,8 2,8 C2.66774074,8 3,7.66774074 3,7 Z M21,7 C21,4.63961317 21,3.30627984 21,3 C21,2.54058025 20.4595556,2 20,2 L16,2 C15.3322593,2 15,1.66774074 15,1 C15,0.332395062 15.2185185,0.00218641975 15.8862593,0.00218641975 L20,0 C20.8465926,0 21.4993827,0.325803704 22.0879506,0.914371605 C22.6763827,1.5028037 23,2.15354321 23,3 L23,7.0685321 C23,7.7339642 22.6677407,8 22,8 C21.3322593,8 21,7.66774074 21,7 Z M21,15 C21,17.3603868 21,18.6937202 21,19 C21,19.4594198 20.4595556,20 20,20 L16,20 C15.3322593,20 15,20.3322593 15,21 C15,21.6676049 15.2185185,21.9978136 15.8862593,21.9978136 L20,22 C20.8465926,22 21.4993827,21.6741963 22.0879506,21.0856284 C22.6763827,20.4971963 23,19.8464568 23,19 L23,14.9314679 C23,14.2660358 22.6677407,14 22,14 C21.3322593,14 21,14.3322593 21,15 Z M3,15 C3,17.3603868 3,18.6937202 3,19 C3,19.4594198 3.54044444,20 4,20 L8,20 C8.66774074,20 9,20.3322593 9,21 C9,21.6676049 8.78148148,21.9978136 8.11374074,21.9978136 L4,22 C3.15340741,22 2.50061728,21.6741963 1.91204938,21.0856284 C1.32361728,20.4971963 1,19.8464568 1,19 L1,14.9314679 C1,14.2660358 1.33225926,14 2,14 C2.66774074,14 3,14.3322593 3,15 Z"></path>
                </g>
            </g>
        </g>
    </g>
</svg>