<?xml version="1.0" encoding="UTF-8"?>
<svg width="24px" height="22px" viewBox="0 0 24 22" version="1.1" xmlns="http://www.w3.org/2000/svg" xmlns:xlink="http://www.w3.org/1999/xlink">
    <!-- Generator: Sketch 52.5 (67469) - http://www.bohemiancoding.com/sketch -->
    <title>Scan QR</title>
    <desc>Created with Sketch.</desc>
    <g id="Poc钱包" stroke="none" stroke-width="1" fill="none" fill-rule="evenodd">
        <g id="首页" transform="translate(-333.000000, -55.000000)" fill="#FFFFFF">
            <g id="Scan-QR" transform="translate(333.000000, 54.000000)">
                <path d="M22.871477,11.0000136 L1.12839225,11.0000136 C0.485706661,11.0000136 0,11.4305458 0,11.9999557 C0,12.5694814 0.485706661,13.0000136 1.12839225,13.0000136 L22.871477,13.0000136 C23.5141626,13.0000136 24,12.5694814 24,11.9999557 C24,11.4305458 23.5141626,11.0000136 22.871477,11.0000136 M3,8 C3,5.63961317 3,4.30627984 3,4 C3,3.54058025 3.54044444,3 4,3 L8,3 C8.66774074,3 9,2.66774074 9,2 C9,1.33239506 8.78148148,1.00218642 8.11374074,1.00218642 L4,1 C3.15340741,1 2.50061728,1.3258037 1.91204938,1.9143716 C1.32361728,2.5028037 1,3.15354321 1,4 L1,8.0685321 C1,8.7339642 1.33225926,9 2,9 C2.66774074,9 3,8.66774074 3,8 Z M21,8 C21,5.63961317 21,4.30627984 21,4 C21,3.54058025 20.4595556,3 20,3 L16,3 C15.3322593,3 15,2.66774074 15,2 C15,1.33239506 15.2185185,1.00218642 15.8862593,1.00218642 L20,1 C20.8465926,1 21.4993827,1.3258037 22.0879506,1.9143716 C22.6763827,2.5028037 23,3.15354321 23,4 L23,8.0685321 C23,8.7339642 22.6677407,9 22,9 C21.3322593,9 21,8.66774074 21,8 Z M21,16 C21,18.3603868 21,19.6937202 21,20 C21,20.4594198 20.4595556,21 20,21 L16,21 C15.3322593,21 15,21.3322593 15,22 C15,22.6676049 15.2185185,22.9978136 15.8862593,22.9978136 L20,23 C20.8465926,23 21.4993827,22.6741963 22.0879506,22.0856284 C22.6763827,21.4971963 23,20.8464568 23,20 L23,15.9314679 C23,15.2660358 22.6677407,15 22,15 C21.3322593,15 21,15.3322593 21,16 Z M3,16 C3,18.3603868 3,19.6937202 3,20 C3,20.4594198 3.54044444,21 4,21 L8,21 C8.66774074,21 9,21.3322593 9,22 C9,22.6676049 8.78148148,22.9978136 8.11374074,22.9978136 L4,23 C3.15340741,23 2.50061728,22.6741963 1.91204938,22.0856284 C1.32361728,21.4971963 1,20.8464568 1,20 L1,15.9314679 C1,15.2660358 1.33225926,15 2,15 C2.66774074,15 3,15.3322593 3,16 Z" id="扫码icon"></path>
            </g>
        </g>
    </g>
</svg>