<?xml version="1.0" encoding="UTF-8"?>
<svg width="24px" height="24px" viewBox="0 0 24 24" version="1.1" xmlns="http://www.w3.org/2000/svg" xmlns:xlink="http://www.w3.org/1999/xlink">
    <!-- Generator: Sketch 52.5 (67469) - http://www.bohemiancoding.com/sketch -->
    <title>编组</title>
    <desc>Created with Sketch.</desc>
    <g id="组件" stroke="none" stroke-width="1" fill="none" fill-rule="evenodd">
        <g id="Overrides/Tab-Bar/Icons/Unselected/1" transform="translate(-12.000000, -5.000000)" fill="#00B000">
            <g id="编组" transform="translate(12.000000, 5.000000)">
                <path d="M11.9588883,14 C17.9655048,14 22.0188768,16.1204872 24,21.7777778 C24,21.8518519 24,21.9259259 24,22 L24,22 C24,23.1045695 23.1045695,24 22,24 L2,24 C0.8954305,24 1.3527075e-16,23.1045695 0,22 C1.72917236e-15,21.9259259 1.79092852e-15,21.8518519 1.85268467e-15,21.7777778 C1.9248644,16.1135008 5.94856396,14 11.9588883,14 Z" id="矩形"></path>
                <rect id="矩形" transform="translate(12.000000, 6.000000) scale(1, -1) translate(-12.000000, -6.000000) " x="6" y="0" width="12" height="12" rx="6"></rect>
            </g>
        </g>
    </g>
</svg>