<?xml version="1.0" encoding="UTF-8"?>
<svg width="14px" height="14px" viewBox="0 0 14 14" version="1.1" xmlns="http://www.w3.org/2000/svg" xmlns:xlink="http://www.w3.org/1999/xlink">
    <!-- Generator: Sketch 52.5 (67469) - http://www.bohemiancoding.com/sketch -->
    <title>Detail Disclosure</title>
    <desc>Created with Sketch.</desc>
    <g id="Poc钱包" stroke="none" stroke-width="1" fill="none" fill-rule="evenodd">
        <g id="赎回" transform="translate(-127.000000, -306.000000)" fill="#00B000">
            <g id="赎回操作区域" transform="translate(18.000000, 291.000000)">
                <path d="M116,29 C112.134007,29 109,25.8659932 109,22 C109,18.1340068 112.134007,15 116,15 C119.865993,15 123,18.1340068 123,22 C123,25.8659932 119.865993,29 116,29 Z M116,28.3636364 C119.514539,28.3636364 122.363636,25.5145393 122.363636,22 C122.363636,18.4854607 119.514539,15.6363636 116,15.6363636 C112.485461,15.6363636 109.636364,18.4854607 109.636364,22 C109.636364,25.5145393 112.485461,28.3636364 116,28.3636364 Z M114.727273,20.4090909 L116.636364,20.4090909 L116.636364,25.5 L117.272727,25.5 L117.272727,25.8181818 L114.727273,25.8181818 L114.727273,25.5 L115.363636,25.5 L115.363636,20.7272727 L114.727273,20.7272727 L114.727273,20.4090909 Z M115.840909,19.4545455 C115.401592,19.4545455 115.045455,19.0984083 115.045455,18.6590909 C115.045455,18.2197735 115.401592,17.8636364 115.840909,17.8636364 C116.280227,17.8636364 116.636364,18.2197735 116.636364,18.6590909 C116.636364,19.0984083 116.280227,19.4545455 115.840909,19.4545455 Z" id="Detail-Disclosure"></path>
            </g>
        </g>
    </g>
</svg>