<?xml version="1.0" encoding="UTF-8"?>
<svg width="36px" height="36px" viewBox="0 0 36 36" version="1.1" xmlns="http://www.w3.org/2000/svg" xmlns:xlink="http://www.w3.org/1999/xlink">
    <!-- Generator: Sketch 52.5 (67469) - http://www.bohemiancoding.com/sketch -->
    <title>收款控件icon</title>
    <desc>Created with Sketch.</desc>
    <defs>
        <polygon id="path-1" points="0 0 35.964864 0 35.964864 35.964 0 35.964"></polygon>
    </defs>
    <g id="Poc钱包" stroke="none" stroke-width="1" fill="none" fill-rule="evenodd">
        <g id="首页" transform="translate(-66.000000, -249.000000)">
            <g id="转账收款控件" transform="translate(18.000000, 235.000000)">
                <g id="收款控件icon" transform="translate(48.000000, 14.000000)">
                    <mask id="mask-2" fill="white">
                        <use xlink:href="#path-1"></use>
                    </mask>
                    <g id="Clip-2"></g>
                    <path d="M35.94402,15.7967337 L35.85708,13.7899137 C35.72208,12.9408537 35.77158,12.0737937 35.62146,11.2564137 C35.54964,10.8064137 35.48052,10.3519137 35.41158,9.8988537 C35.16408,8.7679137 34.92396,7.6954737 34.53408,6.7189737 C33.8112,4.9099737 32.69664,3.3875337 31.14414,2.4079737 C27.81252,0.314033705 22.86414,-0.0144662952 17.4177,0.000473704757 L15.79176,0.0260337048 L14.79276,0.0620337048 L14.08338,0.0964137048 L12.16332,0.246533705 L11.12238,0.369473705 C10.34244,0.513473705 9.5715,0.594473705 8.8425,0.780593705 C5.48406,1.6354137 3.51756,2.8954137 1.96344,5.5624737 C1.1925,6.8869137 0.8685,8.5173537 0.49212,10.2498537 L0.25506,12.0017937 L0.08712,14.0867337 L0.06012,14.7977337 L0,16.7161737 L0,18.6693537 L0.03456,20.4722337 L0.07956,21.7262937 C0.0945,22.0096137 0.11412,22.2918537 0.13212,22.5751737 C0.252,23.3371137 0.22356,24.1127337 0.35856,24.8462337 C0.567,25.9681737 0.70344,27.0512337 1.01556,28.0516737 C1.863,30.7680537 3.1365,32.5860537 5.38038,33.9045537 C6.38082,34.4940537 7.57944,34.8704337 8.84088,35.1929937 L10.24344,35.4736137 L11.99682,35.7090537 C12.74382,35.7691737 13.49226,35.8260537 14.23944,35.8845537 L15.00138,35.9101137 L16.61526,35.9551137 L17.42076,35.9641137 L18.54144,35.9641137 L20.73276,35.9279337 L21.36276,35.9011137 L23.23764,35.7779937 L24.8427,35.6024937 C26.0442,35.3805537 27.19008,35.2201737 28.25226,34.8841137 C30.5532,34.1579937 32.26302,32.9969937 33.5097,31.2211137 C34.46964,29.8561737 34.96158,28.1206137 35.38458,26.2111737 C35.47458,25.6186137 35.56746,25.0246137 35.65458,24.4322337 L35.84952,22.3112937 C35.85996,22.0562337 35.87202,21.8042337 35.88552,21.5493537 C35.90802,20.9717337 35.93052,20.3942937 35.95608,19.8137937 L35.95608,19.3488537 L35.9649,18.5417337 L35.9649,16.6142937 L35.94708,15.7924137 L35.94402,15.7967337 Z" id="Fill-1" fill="#00B000" mask="url(#mask-2)"></path>
                    <path d="M20.6508876,13.9925822 C21.2023905,13.9925822 21.6494083,14.4397065 21.6494083,14.991103 C21.6494083,15.5426059 21.2023905,15.9896237 20.6508876,15.9896237 L14.6597633,15.9896237 C14.1082604,15.9896237 13.6612426,15.5426059 13.6612426,14.991103 C13.6612426,14.4397065 14.1082604,13.9925822 14.6597633,13.9925822 L20.6508876,13.9925822 Z M16.6568047,17.9866651 C17.2083077,17.9866651 17.6553254,18.4336828 17.6553254,18.9851858 C17.6553254,19.5366888 17.2083077,19.9837065 16.6568047,19.9837065 L14.6597633,19.9837065 C14.1082604,19.9837065 13.6612426,19.5366888 13.6612426,18.9851858 C13.6612426,18.4336828 14.1082604,17.9866651 14.6597633,17.9866651 L16.6568047,17.9866651 Z M25.4931006,20.3044749 L27.8455621,22.6583211 C28.2349586,23.0481436 28.2349586,23.6797412 27.8455621,24.0695637 L25.4931006,26.4235164 C25.1100947,26.8202619 24.478071,26.8316584 24.0811124,26.4486525 C23.6842604,26.0657531 23.6729704,25.4336229 24.0559763,25.0367708 C24.0639645,25.0284631 24.0721657,25.0202619 24.0804734,25.0122738 L24.754142,24.3384986 L20.6269231,24.3372205 C20.0755266,24.3372205 19.6284024,23.8900962 19.6284024,23.3386998 C19.6284024,22.7871968 20.0755266,22.3401791 20.6269231,22.3401791 L24.7049349,22.3401791 L24.0804734,21.7171022 C23.6836213,21.3340962 23.6723314,20.7020726 24.0552308,20.305114 C24.4382367,19.9083684 25.0702604,19.896972 25.4672189,20.2799779 C25.4755266,20.2879661 25.4836213,20.2961673 25.491716,20.3044749 L25.4931006,20.3044749 Z M21.6494083,8.9999787 C23.6713728,8.9999787 25.3106509,10.6392568 25.3106509,12.6612213 L25.3106509,17.9866651 C25.3104379,18.538168 24.8633136,18.9850793 24.3118107,18.9848663 C23.8130296,18.9847598 23.3909349,18.6165586 23.3229822,18.1224639 L23.3136095,17.9866651 L23.3136095,12.6612213 C23.3136095,11.7425822 22.5680473,10.9970201 21.6494083,10.9970201 L11.9970414,10.9970201 L11.9970414,23.3121089 C11.9970414,24.2307479 12.7426036,24.9763101 13.6612426,24.9763101 L18.9866864,24.9763101 L19.1224852,24.9856828 C19.6687692,25.0608781 20.0507101,25.5645586 19.9755148,26.1109491 C19.9145917,26.5543456 19.5658817,26.9030556 19.1224852,26.9640852 L18.9866864,26.9733515 L13.6612426,26.9733515 C11.6391716,26.9733515 10,25.3341799 10,23.3121089 L10,10.6641799 C10,9.74554083 10.7455621,8.9999787 11.6642012,8.9999787 L21.6494083,8.9999787 Z" id="Fill-1" fill="#FFFFFF" mask="url(#mask-2)"></path>
                </g>
            </g>
        </g>
    </g>
</svg>