<?xml version="1.0" encoding="UTF-8"?>
<svg width="24px" height="24px" viewBox="0 0 24 24" version="1.1" xmlns="http://www.w3.org/2000/svg" xmlns:xlink="http://www.w3.org/1999/xlink">
    <!-- Generator: Sketch 52.5 (67469) - http://www.bohemiancoding.com/sketch -->
    <title>形状结合</title>
    <desc>Created with Sketch.</desc>
    <g id="组件" stroke="none" stroke-width="1" fill="none" fill-rule="evenodd">
        <g id="Overrides/Tab-Bar/Icons/Active/1" transform="translate(-12.000000, -6.000000)" fill="#00B000">
            <path d="M31,7.95743117 L31,9 L16,9 L28.5329196,6.05456476 C29.6069446,5.80215182 30.6867329,6.44947301 30.9446943,7.50039711 C30.9814364,7.65008305 31,7.80348827 31,7.95743117 Z M36,16 L31,16 C28.790861,16 27,17.790861 27,20 C27,22.209139 28.790861,24 31,24 L36,24 L36,27 C36,28.6568542 34.6568542,30 33,30 L15,30 C13.3431458,30 12,28.6568542 12,27 L12,13 C12,11.3431458 13.3431458,10 15,10 L33,10 C34.6568542,10 36,11.3431458 36,13 L36,16 Z M36,18 L36,22 L31,22 C29.8954305,22 29,21.1045695 29,20 C29,18.8954305 29.8954305,18 31,18 L36,18 Z" id="形状结合"></path>
        </g>
    </g>
</svg>