<?xml version="1.0" standalone="no"?><!DOCTYPE svg PUBLIC "-//W3C//DTD SVG 1.1//EN" "http://www.w3.org/Graphics/SVG/1.1/DTD/svg11.dtd"><svg class="icon" width="32px" height="32.00px" viewBox="0 0 1024 1024" version="1.1" xmlns="http://www.w3.org/2000/svg"><path fill="#333333" d="M234.8 60.4v228.3c0 64.9 44.4 119.6 104.7 136.2v428.4c0 56.7 46.5 102.8 103.8 102.8h137.4c57.2 0 103.8-46.1 103.8-102.8V424.9c60.3-16.5 104.7-71.2 104.7-136.2V60.4H234.8z m488.9 64.9v55.5H300.3v-55.5h423.4zM619 775.8H405V430.1h214v345.7z m-38.3 115.4H443.3c-21.1 0-38.3-17-38.3-37.9v-12.6h214v12.6c0 20.9-17.2 37.9-38.3 37.9z m65.8-526h-269c-42.6 0-77.2-34.3-77.2-76.5v-43h423.4v43c0 42.2-34.6 76.5-77.2 76.5z"  /><path fill="#333333" d="M471.1 532.8a45.7 45.3 0 1 0 91.4 0 45.7 45.3 0 1 0-91.4 0Z"  /></svg>